<svg width="19" height="20" viewBox="0 0 19 20" fill="none" xmlns="http://www.w3.org/2000/svg">
<g clip-path="url(#clip0_1026_214)">
<g clip-path="url(#clip1_1026_214)">
<path d="M9.42188 4.375C9.07812 4.375 8.79688 4.09375 8.79688 3.75V3.125C8.79688 1.39844 10.1953 0 11.9219 0H12.5469C12.8906 0 13.1719 0.28125 13.1719 0.625V1.25C13.1719 2.97656 11.7734 4.375 10.0469 4.375H9.42188ZM0.671875 11.25C0.671875 8.26953 2.06641 5 5.04688 5C6.11328 5 7.37891 5.40234 8.27734 5.75391C9.01172 6.03906 9.83594 6.03906 10.5703 5.75391C11.4648 5.40625 12.7344 5 13.8008 5C16.7812 5 18.1758 8.26953 18.1758 11.25C18.1758 16.25 15.0508 20 11.9258 20C11.2812 20 10.4375 19.7422 9.91406 19.5586C9.59766 19.4492 9.25391 19.4492 8.9375 19.5586C8.41406 19.7422 7.57031 20 6.92578 20C3.79688 20 0.671875 16.25 0.671875 11.25Z" fill="black"/>
</g>
</g>
<defs>
<clipPath id="clip0_1026_214">
<rect width="17.5" height="20" fill="white" transform="translate(0.671875)"/>
</clipPath>
<clipPath id="clip1_1026_214">
<path d="M0.671875 0H18.1719V20H0.671875V0Z" fill="white"/>
</clipPath>
</defs>
</svg>
