<svg width="14" height="13" viewBox="0 0 14 13" fill="none" xmlns="http://www.w3.org/2000/svg">
<path d="M3.37957 10.4496C3.7323 10.1926 4.18895 10.127 4.5991 10.2746C5.32371 10.5371 6.13582 10.6875 6.99988 10.6875C10.4096 10.6875 12.6874 8.48633 12.6874 6.3125C12.6874 4.13867 10.4096 1.9375 6.99988 1.9375C3.59012 1.9375 1.31238 4.13867 1.31238 6.3125C1.31238 7.1875 1.65145 8.02969 2.28855 8.75156C2.52371 9.0168 2.63856 9.3668 2.61121 9.72227C2.57293 10.2172 2.45535 10.6711 2.30223 11.073C2.76707 10.857 3.15262 10.6164 3.37957 10.4523V10.4496ZM0.579571 11.5598C0.628789 11.4859 0.675274 11.4121 0.719024 11.3383C0.992461 10.8844 1.25223 10.2883 1.30418 9.61836C0.483868 8.68594 -0.000116852 7.5457 -0.000116852 6.3125C-0.000116852 3.1707 3.13348 0.625 6.99988 0.625C10.8663 0.625 13.9999 3.1707 13.9999 6.3125C13.9999 9.4543 10.8663 12 6.99988 12C5.98543 12 5.02293 11.825 4.1534 11.5105C3.82801 11.7484 3.29754 12.0738 2.66863 12.3473C2.25574 12.5277 1.78543 12.6918 1.29871 12.7875C1.27684 12.793 1.25496 12.7957 1.23309 12.8012C1.11277 12.823 0.995196 12.8422 0.872149 12.8531C0.86668 12.8531 0.858477 12.8559 0.853008 12.8559C0.713555 12.8695 0.574102 12.8777 0.434649 12.8777C0.256914 12.8777 0.0983206 12.7711 0.0299613 12.607C-0.0383981 12.443 -0.000116855 12.257 0.12293 12.1312C0.235039 12.0164 0.336211 11.8934 0.431914 11.7621C0.478399 11.6992 0.522149 11.6363 0.563164 11.5734C0.565899 11.568 0.568633 11.5652 0.571368 11.5598H0.579571Z" fill="black"/>
</svg>
