<svg width="190" height="190" viewBox="0 0 190 190" fill="none" xmlns="http://www.w3.org/2000/svg">
<path d="M69.4121 72.4688V81H67.9531V72.4688H69.4121ZM72.0898 72.4688V73.6406H65.2988V72.4688H72.0898ZM71.9844 77.9004V77.7656C71.9844 77.3086 72.0508 76.8848 72.1836 76.4941C72.3164 76.0996 72.5078 75.7578 72.7578 75.4688C73.0117 75.1758 73.3203 74.9492 73.6836 74.7891C74.0508 74.625 74.4648 74.543 74.9258 74.543C75.3906 74.543 75.8047 74.625 76.168 74.7891C76.5352 74.9492 76.8457 75.1758 77.0996 75.4688C77.3535 75.7578 77.5469 76.0996 77.6797 76.4941C77.8125 76.8848 77.8789 77.3086 77.8789 77.7656V77.9004C77.8789 78.3574 77.8125 78.7812 77.6797 79.1719C77.5469 79.5625 77.3535 79.9043 77.0996 80.1973C76.8457 80.4863 76.5371 80.7129 76.1738 80.877C75.8105 81.0371 75.3984 81.1172 74.9375 81.1172C74.4727 81.1172 74.0566 81.0371 73.6895 80.877C73.3262 80.7129 73.0176 80.4863 72.7637 80.1973C72.5098 79.9043 72.3164 79.5625 72.1836 79.1719C72.0508 78.7812 71.9844 78.3574 71.9844 77.9004ZM73.3965 77.7656V77.9004C73.3965 78.1855 73.4258 78.4551 73.4844 78.709C73.543 78.9629 73.6348 79.1855 73.7598 79.377C73.8848 79.5684 74.0449 79.7188 74.2402 79.8281C74.4355 79.9375 74.668 79.9922 74.9375 79.9922C75.1992 79.9922 75.4258 79.9375 75.6172 79.8281C75.8125 79.7188 75.9727 79.5684 76.0977 79.377C76.2227 79.1855 76.3145 78.9629 76.373 78.709C76.4355 78.4551 76.4668 78.1855 76.4668 77.9004V77.7656C76.4668 77.4844 76.4355 77.2188 76.373 76.9688C76.3145 76.7148 76.2207 76.4902 76.0918 76.2949C75.9668 76.0996 75.8066 75.9473 75.6113 75.8379C75.4199 75.7246 75.1914 75.668 74.9258 75.668C74.6602 75.668 74.4297 75.7246 74.2344 75.8379C74.043 75.9473 73.8848 76.0996 73.7598 76.2949C73.6348 76.4902 73.543 76.7148 73.4844 76.9688C73.4258 77.2188 73.3965 77.4844 73.3965 77.7656ZM81.9688 74.6602V75.6914H78.3945V74.6602H81.9688ZM79.4258 73.1074H80.8379V79.248C80.8379 79.4434 80.8652 79.5938 80.9199 79.6992C80.9785 79.8008 81.0586 79.8691 81.1602 79.9043C81.2617 79.9395 81.3809 79.957 81.5176 79.957C81.6152 79.957 81.709 79.9512 81.7988 79.9395C81.8887 79.9277 81.9609 79.916 82.0156 79.9043L82.0215 80.9824C81.9043 81.0176 81.7676 81.0488 81.6113 81.0762C81.459 81.1035 81.2832 81.1172 81.084 81.1172C80.7598 81.1172 80.4727 81.0605 80.2227 80.9473C79.9727 80.8301 79.7773 80.6406 79.6367 80.3789C79.4961 80.1172 79.4258 79.7695 79.4258 79.3359V73.1074ZM86.6328 79.7285V76.7051C86.6328 76.4785 86.5918 76.2832 86.5098 76.1191C86.4277 75.9551 86.3027 75.8281 86.1348 75.7383C85.9707 75.6484 85.7637 75.6035 85.5137 75.6035C85.2832 75.6035 85.084 75.6426 84.916 75.7207C84.748 75.7988 84.6172 75.9043 84.5234 76.0371C84.4297 76.1699 84.3828 76.3203 84.3828 76.4883H82.9766C82.9766 76.2383 83.0371 75.9961 83.1582 75.7617C83.2793 75.5273 83.4551 75.3184 83.6855 75.1348C83.916 74.9512 84.1914 74.8066 84.5117 74.7012C84.832 74.5957 85.1914 74.543 85.5898 74.543C86.0664 74.543 86.4883 74.623 86.8555 74.7832C87.2266 74.9434 87.5176 75.1855 87.7285 75.5098C87.9434 75.8301 88.0508 76.2324 88.0508 76.7168V79.5352C88.0508 79.8242 88.0703 80.084 88.1094 80.3145C88.1523 80.541 88.2129 80.7383 88.291 80.9062V81H86.8438C86.7773 80.8477 86.7246 80.6543 86.6855 80.4199C86.6504 80.1816 86.6328 79.9512 86.6328 79.7285ZM86.8379 77.1445L86.8496 78.0176H85.8359C85.5742 78.0176 85.3438 78.043 85.1445 78.0938C84.9453 78.1406 84.7793 78.2109 84.6465 78.3047C84.5137 78.3984 84.4141 78.5117 84.3477 78.6445C84.2812 78.7773 84.248 78.9277 84.248 79.0957C84.248 79.2637 84.2871 79.418 84.3652 79.5586C84.4434 79.6953 84.5566 79.8027 84.7051 79.8809C84.8574 79.959 85.041 79.998 85.2559 79.998C85.5449 79.998 85.7969 79.9395 86.0117 79.8223C86.2305 79.7012 86.4023 79.5547 86.5273 79.3828C86.6523 79.207 86.7188 79.041 86.7266 78.8848L87.1836 79.5117C87.1367 79.6719 87.0566 79.8438 86.9434 80.0273C86.8301 80.2109 86.6816 80.3867 86.498 80.5547C86.3184 80.7188 86.1016 80.8535 85.8477 80.959C85.5977 81.0645 85.3086 81.1172 84.9805 81.1172C84.5664 81.1172 84.1973 81.0352 83.873 80.8711C83.5488 80.7031 83.2949 80.4785 83.1113 80.1973C82.9277 79.9121 82.8359 79.5898 82.8359 79.2305C82.8359 78.8945 82.8984 78.5977 83.0234 78.3398C83.1523 78.0781 83.3398 77.8594 83.5859 77.6836C83.8359 77.5078 84.1406 77.375 84.5 77.2852C84.8594 77.1914 85.2695 77.1445 85.7305 77.1445H86.8379ZM91.0391 72V81H89.6211V72H91.0391ZM98.6387 79.4414L100.883 72.4688H102.506L99.4473 81H98.3516L98.6387 79.4414ZM96.5645 72.4688L98.791 79.4414L99.0957 81H97.9941L94.9473 72.4688H96.5645ZM106.625 79.7285V76.7051C106.625 76.4785 106.584 76.2832 106.502 76.1191C106.42 75.9551 106.295 75.8281 106.127 75.7383C105.963 75.6484 105.756 75.6035 105.506 75.6035C105.275 75.6035 105.076 75.6426 104.908 75.7207C104.74 75.7988 104.609 75.9043 104.516 76.0371C104.422 76.1699 104.375 76.3203 104.375 76.4883H102.969C102.969 76.2383 103.029 75.9961 103.15 75.7617C103.271 75.5273 103.447 75.3184 103.678 75.1348C103.908 74.9512 104.184 74.8066 104.504 74.7012C104.824 74.5957 105.184 74.543 105.582 74.543C106.059 74.543 106.48 74.623 106.848 74.7832C107.219 74.9434 107.51 75.1855 107.721 75.5098C107.936 75.8301 108.043 76.2324 108.043 76.7168V79.5352C108.043 79.8242 108.062 80.084 108.102 80.3145C108.145 80.541 108.205 80.7383 108.283 80.9062V81H106.836C106.77 80.8477 106.717 80.6543 106.678 80.4199C106.643 80.1816 106.625 79.9512 106.625 79.7285ZM106.83 77.1445L106.842 78.0176H105.828C105.566 78.0176 105.336 78.043 105.137 78.0938C104.938 78.1406 104.771 78.2109 104.639 78.3047C104.506 78.3984 104.406 78.5117 104.34 78.6445C104.273 78.7773 104.24 78.9277 104.24 79.0957C104.24 79.2637 104.279 79.418 104.357 79.5586C104.436 79.6953 104.549 79.8027 104.697 79.8809C104.85 79.959 105.033 79.998 105.248 79.998C105.537 79.998 105.789 79.9395 106.004 79.8223C106.223 79.7012 106.395 79.5547 106.52 79.3828C106.645 79.207 106.711 79.041 106.719 78.8848L107.176 79.5117C107.129 79.6719 107.049 79.8438 106.936 80.0273C106.822 80.2109 106.674 80.3867 106.49 80.5547C106.311 80.7188 106.094 80.8535 105.84 80.959C105.59 81.0645 105.301 81.1172 104.973 81.1172C104.559 81.1172 104.189 81.0352 103.865 80.8711C103.541 80.7031 103.287 80.4785 103.104 80.1973C102.92 79.9121 102.828 79.5898 102.828 79.2305C102.828 78.8945 102.891 78.5977 103.016 78.3398C103.145 78.0781 103.332 77.8594 103.578 77.6836C103.828 77.5078 104.133 77.375 104.492 77.2852C104.852 77.1914 105.262 77.1445 105.723 77.1445H106.83ZM111.031 72V81H109.613V72H111.031ZM116.393 79.5059V74.6602H117.811V81H116.475L116.393 79.5059ZM116.592 78.1875L117.066 78.1758C117.066 78.6016 117.02 78.9941 116.926 79.3535C116.832 79.709 116.688 80.0195 116.492 80.2852C116.297 80.5469 116.047 80.752 115.742 80.9004C115.438 81.0449 115.072 81.1172 114.646 81.1172C114.338 81.1172 114.055 81.0723 113.797 80.9824C113.539 80.8926 113.316 80.7539 113.129 80.5664C112.945 80.3789 112.803 80.1348 112.701 79.834C112.6 79.5332 112.549 79.1738 112.549 78.7559V74.6602H113.961V78.7676C113.961 78.998 113.988 79.1914 114.043 79.3477C114.098 79.5 114.172 79.623 114.266 79.7168C114.359 79.8105 114.469 79.877 114.594 79.916C114.719 79.9551 114.852 79.9746 114.992 79.9746C115.395 79.9746 115.711 79.8965 115.941 79.7402C116.176 79.5801 116.342 79.3652 116.439 79.0957C116.541 78.8262 116.592 78.5234 116.592 78.1875ZM122.053 81.1172C121.584 81.1172 121.16 81.041 120.781 80.8887C120.406 80.7324 120.086 80.5156 119.82 80.2383C119.559 79.9609 119.357 79.6348 119.217 79.2598C119.076 78.8848 119.006 78.4805 119.006 78.0469V77.8125C119.006 77.3164 119.078 76.8672 119.223 76.4648C119.367 76.0625 119.568 75.7188 119.826 75.4336C120.084 75.1445 120.389 74.9238 120.74 74.7715C121.092 74.6191 121.473 74.543 121.883 74.543C122.336 74.543 122.732 74.6191 123.072 74.7715C123.412 74.9238 123.693 75.1387 123.916 75.416C124.143 75.6895 124.311 76.0156 124.42 76.3945C124.533 76.7734 124.59 77.1914 124.59 77.6484V78.252H119.691V77.2383H123.195V77.127C123.188 76.873 123.137 76.6348 123.043 76.4121C122.953 76.1895 122.814 76.0098 122.627 75.873C122.439 75.7363 122.189 75.668 121.877 75.668C121.643 75.668 121.434 75.7188 121.25 75.8203C121.07 75.918 120.92 76.0605 120.799 76.248C120.678 76.4355 120.584 76.6621 120.518 76.9277C120.455 77.1895 120.424 77.4844 120.424 77.8125V78.0469C120.424 78.3242 120.461 78.582 120.535 78.8203C120.613 79.0547 120.727 79.2598 120.875 79.4355C121.023 79.6113 121.203 79.75 121.414 79.8516C121.625 79.9492 121.865 79.998 122.135 79.998C122.475 79.998 122.777 79.9297 123.043 79.793C123.309 79.6562 123.539 79.4629 123.734 79.2129L124.479 79.9336C124.342 80.1328 124.164 80.3242 123.945 80.5078C123.727 80.6875 123.459 80.834 123.143 80.9473C122.83 81.0605 122.467 81.1172 122.053 81.1172Z" fill="#737373"/>
<path d="M93.8105 95.0938V97.2129L86.1133 115H81.957L89.6543 98.1699H79.7422V95.0938H93.8105ZM109.984 111.924V115H96.3672V112.375L102.807 105.471C103.454 104.751 103.964 104.117 104.338 103.57C104.712 103.014 104.98 102.518 105.145 102.08C105.318 101.633 105.404 101.21 105.404 100.809C105.404 100.207 105.304 99.6921 105.104 99.2637C104.903 98.8262 104.607 98.4889 104.215 98.252C103.832 98.015 103.358 97.8965 102.793 97.8965C102.191 97.8965 101.672 98.0423 101.234 98.334C100.806 98.6257 100.478 99.0312 100.25 99.5508C100.031 100.07 99.9219 100.658 99.9219 101.314H95.9707C95.9707 100.13 96.2533 99.0449 96.8184 98.0605C97.3835 97.0671 98.181 96.2786 99.2109 95.6953C100.241 95.1029 101.462 94.8066 102.875 94.8066C104.27 94.8066 105.445 95.0345 106.402 95.4902C107.368 95.9368 108.098 96.584 108.59 97.4316C109.091 98.2702 109.342 99.2728 109.342 100.439C109.342 101.096 109.237 101.738 109.027 102.367C108.818 102.987 108.517 103.607 108.125 104.227C107.742 104.837 107.277 105.457 106.73 106.086C106.184 106.715 105.577 107.367 104.912 108.041L101.453 111.924H109.984Z" fill="#0A0A0A"/>
<path d="M95 1C113.591 1 131.765 6.513 147.224 16.8419C162.682 27.1707 174.73 41.8515 181.845 59.0278C188.959 76.204 190.821 95.1043 187.194 113.338C183.567 131.573 174.614 148.322 161.468 161.468L142.857 142.857C152.322 133.392 158.768 121.332 161.38 108.204C163.991 95.0751 162.651 81.4669 157.528 69.1C152.406 56.7331 143.731 46.1629 132.601 38.7261C121.471 31.2894 108.386 27.32 95 27.32V1Z" fill="#14B8A6" stroke="white" stroke-width="2"/>
<path d="M95 189C78.4995 189 62.2898 184.657 48 176.406L61.16 153.613C71.4487 159.553 83.1197 162.68 95 162.68L95 189Z" fill="#6366F1" stroke="white" stroke-width="2"/>
<path d="M48 176.406C33.7102 168.156 21.8438 156.29 13.5936 142C5.34339 127.71 0.999999 111.5 1 95H27.32C27.32 106.88 30.4472 118.551 36.3874 128.84C42.3276 139.129 50.8713 147.672 61.16 153.613L48 176.406Z" fill="#EC4899" stroke="white" stroke-width="2"/>
<path d="M1 95C1 82.6557 3.43138 70.4324 8.15533 59.0277C12.8793 47.6231 19.8033 37.2607 28.532 28.532L47.143 47.143C40.8583 53.4277 35.8731 60.8887 32.4718 69.1C29.0706 77.3113 27.32 86.1121 27.32 95H1Z" fill="#F59E0B" stroke="white" stroke-width="2"/>
<path d="M28.532 28.532C37.2607 19.8033 47.6231 12.8793 59.0278 8.15532C70.4324 3.43138 82.6557 1 95 1V27.32C86.1121 27.32 77.3113 29.0706 69.1 32.4718C60.8887 35.8731 53.4277 40.8583 47.143 47.143L28.532 28.532Z" fill="#FACC15" stroke="white" stroke-width="2"/>
<path d="M161.468 161.468C143.84 179.096 119.93 189 95 189V162.68C112.95 162.68 130.165 155.549 142.857 142.857L161.468 161.468Z" fill="#3B82F6" stroke="white" stroke-width="2"/>
</svg>
