<svg width="14" height="16" viewBox="0 0 14 16" fill="none" xmlns="http://www.w3.org/2000/svg">
<path d="M4.97813 0.168563C5.22188 -0.0595623 5.6 -0.0564373 5.84375 0.171688C6.70625 0.981063 7.51563 1.85294 8.27188 2.79669C8.61563 2.34669 9.00625 1.85606 9.42813 1.45606C9.675 1.22481 10.0563 1.22481 10.3031 1.45919C11.3844 2.49044 12.3 3.85294 12.9438 5.14669C13.5781 6.42169 14 7.72481 14 8.64356C14 12.6311 10.8813 15.9998 7 15.9998C3.075 15.9998 0 12.6279 0 8.64044C0 7.44044 0.55625 5.97481 1.41875 4.52481C2.29063 3.05294 3.52188 1.51856 4.97813 0.168563ZM7.05312 12.9998C7.84375 12.9998 8.54375 12.7811 9.20312 12.3436C10.5188 11.4248 10.8719 9.58731 10.0813 8.14356C9.94063 7.86231 9.58125 7.84356 9.37813 8.08106L8.59062 8.99669C8.38437 9.23419 8.0125 9.22794 7.81875 8.98106C7.30312 8.32481 6.38125 7.15294 5.85625 6.48731C5.65937 6.23731 5.28437 6.23419 5.08437 6.48419C4.02812 7.81231 3.49688 8.64981 3.49688 9.59044C3.5 11.7311 5.08125 12.9998 7.05312 12.9998Z" fill="#F97316"/>
</svg>
