<svg width="15" height="15" viewBox="0 0 15 15" fill="none" xmlns="http://www.w3.org/2000/svg">
<g clip-path="url(#clip0_1026_100)">
<g clip-path="url(#clip1_1026_100)">
<path d="M6.18984 13.5523L6.12148 13.4894L1.33086 9.04062C0.491406 8.26132 0.015625 7.16757 0.015625 6.02187V5.93163C0.015625 4.00663 1.38281 2.35507 3.275 1.99413C4.35234 1.78632 5.4543 2.03515 6.33203 2.65312C6.57812 2.82812 6.80781 3.03046 7.01562 3.26288C7.13047 3.13163 7.25352 3.01132 7.38477 2.89921C7.48594 2.81171 7.58984 2.72968 7.69922 2.65312C8.57695 2.03515 9.67891 1.78632 10.7562 1.9914C12.6484 2.35234 14.0156 4.00663 14.0156 5.93163V6.02187C14.0156 7.16757 13.5398 8.26132 12.7004 9.04062L7.90977 13.4894L7.84141 13.5523C7.61719 13.7601 7.32188 13.8777 7.01562 13.8777C6.70937 13.8777 6.41406 13.7629 6.18984 13.5523ZM6.55352 4.71484C6.54258 4.70663 6.53438 4.6957 6.52617 4.68476L6.03945 4.13788L6.03672 4.13515C5.40508 3.42695 4.45078 3.10429 3.52109 3.28202C2.24688 3.52538 1.32812 4.63554 1.32812 5.93163V6.02187C1.32812 6.80117 1.65352 7.54765 2.225 8.07812L7.01562 12.5269L11.8063 8.07812C12.3777 7.54765 12.7031 6.80117 12.7031 6.02187V5.93163C12.7031 4.63827 11.7844 3.52538 10.5129 3.28202C9.5832 3.10429 8.62617 3.42968 7.99727 4.13515C7.99727 4.13515 7.99727 4.13515 7.99453 4.13788C7.9918 4.14062 7.99453 4.13788 7.9918 4.14062L7.50508 4.68749C7.49687 4.69843 7.48594 4.70663 7.47773 4.71757C7.35469 4.84062 7.18789 4.90898 7.01562 4.90898C6.84336 4.90898 6.67656 4.84062 6.55352 4.71757V4.71484Z" fill="black"/>
</g>
</g>
<defs>
<clipPath id="clip0_1026_100">
<rect width="14" height="14" fill="white" transform="translate(0.015625 0.75)"/>
</clipPath>
<clipPath id="clip1_1026_100">
<path d="M0.015625 0.75H14.0156V14.75H0.015625V0.75Z" fill="white"/>
</clipPath>
</defs>
</svg>
