<svg width="16" height="20" viewBox="0 0 16 20" fill="none" xmlns="http://www.w3.org/2000/svg">
<g clip-path="url(#clip0_1026_224)">
<g clip-path="url(#clip1_1026_224)">
<path d="M9.40234 1.25C4.57812 1.25 0.671875 5.16797 0.671875 10C0.671875 14.832 4.57812 18.75 9.40234 18.75C11.7695 18.75 13.9141 17.8047 15.4883 16.2734C15.6836 16.082 15.7344 15.7852 15.6094 15.543C15.4844 15.3008 15.2148 15.1641 14.9453 15.2109C14.5625 15.2773 14.1719 15.3125 13.7695 15.3125C9.98437 15.3125 6.91406 12.2344 6.91406 8.4375C6.91406 5.86719 8.32031 3.62891 10.4023 2.44922C10.6406 2.3125 10.7617 2.03906 10.7031 1.77344C10.6445 1.50781 10.418 1.30859 10.1445 1.28516C9.89844 1.26563 9.65234 1.25391 9.40234 1.25391V1.25Z" fill="black"/>
</g>
</g>
<defs>
<clipPath id="clip0_1026_224">
<rect width="15" height="20" fill="white" transform="translate(0.671875)"/>
</clipPath>
<clipPath id="clip1_1026_224">
<path d="M0.671875 0H15.6719V20H0.671875V0Z" fill="white"/>
</clipPath>
</defs>
</svg>
