<svg width="16" height="20" viewBox="0 0 16 20" fill="none" xmlns="http://www.w3.org/2000/svg">
<g clip-path="url(#clip0_1026_219)">
<g clip-path="url(#clip1_1026_219)">
<path d="M8.17188 20C4.03125 20 0.671875 16.6406 0.671875 12.5C0.671875 8.9375 5.75781 2.25391 7.17969 0.457031C7.41406 0.164062 7.76172 0 8.13672 0H8.20703C8.58203 0 8.92969 0.164062 9.16406 0.457031C10.5859 2.25391 15.6719 8.9375 15.6719 12.5C15.6719 16.6406 12.3125 20 8.17188 20ZM4.42188 13.125C4.42188 12.7812 4.14062 12.5 3.79688 12.5C3.45312 12.5 3.17188 12.7812 3.17188 13.125C3.17188 15.543 5.12891 17.5 7.54688 17.5C7.89062 17.5 8.17188 17.2188 8.17188 16.875C8.17188 16.5312 7.89062 16.25 7.54688 16.25C5.82031 16.25 4.42188 14.8516 4.42188 13.125Z" fill="black"/>
</g>
</g>
<defs>
<clipPath id="clip0_1026_219">
<rect width="15" height="20" fill="white" transform="translate(0.671875)"/>
</clipPath>
<clipPath id="clip1_1026_219">
<path d="M0.671875 0H15.6719V20H0.671875V0Z" fill="white"/>
</clipPath>
</defs>
</svg>
